<?xml version="1.0" encoding="iso-8859-1"?>
<!-- Generator: Adobe Illustrator 27.0.0, SVG Export Plug-In . SVG Version: 6.00 Build 0)  -->
<svg version="1.1" id="Layer_1" xmlns="http://www.w3.org/2000/svg" xmlns:xlink="http://www.w3.org/1999/xlink" x="0px" y="0px"
	 viewBox="0 0 500 500" style="enable-background:new 0 0 500 500;" xml:space="preserve">
<g id="watermark_1_">
	<g>
		<g id="watermark" style="opacity:0.61;">
			<g>
				<g>
					<g>
						<g>
							<polygon style="fill:#FFFFFF;" points="213.765,461.172 208.204,474.017 205.268,474.017 199.726,461.172 202.938,461.172 
								206.846,470.347 210.81,461.172 							"/>
						</g>
						<g>
							<path style="fill:#FFFFFF;" d="M223.507,469.741h-7.469c0.275,1.23,1.321,1.982,2.826,1.982c1.046,0,1.798-0.312,2.477-0.954
								l1.523,1.651c-0.917,1.046-2.294,1.597-4.074,1.597c-3.413,0-5.634-2.147-5.634-5.083c0-2.954,2.257-5.083,5.267-5.083
								c2.899,0,5.138,1.945,5.138,5.12C223.562,469.191,223.526,469.503,223.507,469.741 M216.002,468.071h4.863
								c-0.202-1.248-1.138-2.055-2.422-2.055C217.139,466.016,216.204,466.805,216.002,468.071"/>
						</g>
						<g>
							<path style="fill:#FFFFFF;" d="M224.735,468.934c0-2.973,2.294-5.083,5.505-5.083c2.074,0,3.707,0.899,4.423,2.514
								l-2.22,1.193c-0.532-0.936-1.321-1.358-2.221-1.358c-1.45,0-2.587,1.009-2.587,2.734c0,1.725,1.138,2.734,2.587,2.734
								c0.899,0,1.688-0.404,2.221-1.358l2.22,1.211c-0.716,1.578-2.349,2.495-4.423,2.495
								C227.029,474.017,224.735,471.907,224.735,468.934"/>
						</g>
						<g>
							<path style="fill:#FFFFFF;" d="M242.828,473.393c-0.587,0.422-1.45,0.624-2.331,0.624c-2.33,0-3.688-1.193-3.688-3.542
								v-4.055h-1.523v-2.202h1.523v-2.404h2.863v2.404h2.459v2.202h-2.459v4.019c0,0.844,0.458,1.303,1.229,1.303
								c0.422,0,0.844-0.128,1.156-0.367L242.828,473.393z"/>
						</g>
					</g>
					<g>
						<path style="fill:#FFFFFF;" d="M262.474,463.997v2.643c-0.238-0.018-0.422-0.037-0.642-0.037
							c-1.578,0-2.624,0.862-2.624,2.753v4.661h-2.863v-9.873h2.734v1.303C259.776,464.493,260.951,463.997,262.474,463.997"/>
					</g>
					<g>
						<path style="fill:#FFFFFF;" d="M263.299,472.53l1.009-2.239c1.083,0.789,2.697,1.339,4.239,1.339
							c1.762,0,2.477-0.587,2.477-1.376c0-2.404-7.469-0.752-7.469-5.524c0-2.184,1.762-4,5.413-4c1.615,0,3.267,0.385,4.459,1.138
							l-0.918,2.257c-1.193-0.679-2.422-1.009-3.56-1.009c-1.761,0-2.44,0.66-2.44,1.468c0,2.367,7.468,0.734,7.468,5.45
							c0,2.147-1.78,3.982-5.45,3.982C266.492,474.017,264.437,473.411,263.299,472.53"/>
					</g>
					<g>
						<path style="fill:#FFFFFF;" d="M285.428,469.741h-7.469c0.275,1.23,1.321,1.982,2.826,1.982c1.046,0,1.798-0.312,2.477-0.954
							l1.523,1.651c-0.918,1.046-2.294,1.597-4.074,1.597c-3.413,0-5.634-2.147-5.634-5.083c0-2.954,2.257-5.083,5.267-5.083
							c2.9,0,5.138,1.945,5.138,5.12C285.484,469.191,285.447,469.503,285.428,469.741 M277.923,468.071h4.863
							c-0.202-1.248-1.138-2.055-2.422-2.055C279.061,466.016,278.125,466.805,277.923,468.071"/>
					</g>
					<g>
						<path style="fill:#FFFFFF;" d="M297.007,469.741h-7.469c0.275,1.23,1.321,1.982,2.826,1.982c1.046,0,1.798-0.312,2.477-0.954
							l1.523,1.651c-0.918,1.046-2.294,1.597-4.074,1.597c-3.413,0-5.634-2.147-5.634-5.083c0-2.954,2.257-5.083,5.267-5.083
							c2.899,0,5.138,1.945,5.138,5.12C297.062,469.191,297.025,469.503,297.007,469.741 M289.501,468.071h4.863
							c-0.202-1.248-1.138-2.055-2.422-2.055C290.639,466.016,289.703,466.805,289.501,468.071"/>
					</g>
					<g>
						<polygon style="fill:#FFFFFF;" points="303.208,470.145 301.831,471.503 301.831,474.017 298.969,474.017 298.969,460.401 
							301.831,460.401 301.831,468.108 306.016,464.144 309.429,464.144 305.318,468.328 309.796,474.017 306.327,474.017 						"/>
					</g>
					<g>
						<path style="fill:#FFFFFF;" d="M256.601,475.359L256.601,475.359l-2.86-2.86c-0.435,0.508-0.953,0.943-1.534,1.284
							c-0.092,0.069-0.186,0.136-0.283,0.199l3.027,3.027c0.456,0.456,1.195,0.456,1.65,0
							C257.057,476.554,257.057,475.815,256.601,475.359"/>
					</g>
					<g>
						<path style="fill:#FFFFFF;" d="M249.984,463.244c0.221-0.173,0.495-0.281,0.797-0.281c0.042,0,0.083,0.002,0.124,0.006
							c-0.214-0.156-0.478-0.249-0.764-0.249c-0.395,0-0.744,0.18-0.981,0.458c-0.051,0-0.1,0.006-0.151,0.008
							c0.039-0.077,0.064-0.162,0.064-0.255c0-0.234-0.143-0.434-0.346-0.519c0.087,0.126,0.138,0.279,0.138,0.445
							c0,0.122-0.031,0.237-0.081,0.341c-2.811,0.201-5.03,2.539-5.03,5.4c0,2.993,2.426,5.42,5.42,5.42
							c2.993,0,5.42-2.426,5.42-5.42C254.595,465.879,252.593,463.635,249.984,463.244 M247.983,464.656
							c0.435,0,0.844,0.112,1.199,0.309c0.374-0.245,0.82-0.387,1.299-0.387c0.711,0,1.348,0.312,1.784,0.806
							c-0.435-0.379-1.004-0.61-1.627-0.61c-0.449,0-0.87,0.12-1.234,0.329c-0.079,0.046-0.156,0.096-0.229,0.15
							c-0.065-0.048-0.133-0.093-0.204-0.134c-0.369-0.219-0.8-0.344-1.26-0.344c-0.3,0-0.588,0.054-0.854,0.152
							C247.196,464.754,247.578,464.656,247.983,464.656 M251.772,469.098c0.115,0.305,0.181,0.634,0.181,0.979
							c0,1.534-1.244,2.777-2.778,2.777c-1.534,0-2.777-1.243-2.777-2.777c0-0.345,0.066-0.674,0.181-0.979
							c-0.62-0.382-1.035-1.064-1.035-1.846c0-1.197,0.971-2.168,2.168-2.168c0.565,0,1.078,0.218,1.463,0.572
							c0.386-0.354,0.899-0.572,1.464-0.572c1.197,0,2.168,0.971,2.168,2.168C252.807,468.034,252.392,468.716,251.772,469.098"/>
					</g>
					<g>
						<path style="fill:#FFFFFF;" d="M251.666,467.061c0,0.497-0.404,0.901-0.901,0.901c-0.497,0-0.901-0.404-0.901-0.901
							s0.404-0.901,0.901-0.901c0.101,0,0.197,0.017,0.287,0.047c-0.03,0.062-0.045,0.132-0.045,0.204
							c0,0.273,0.221,0.494,0.494,0.494c0.05,0,0.099-0.008,0.146-0.022C251.66,466.941,251.666,467,251.666,467.061"/>
					</g>
					<g>
						<path style="fill:#FFFFFF;" d="M248.255,467.061c0,0.376-0.305,0.681-0.681,0.681c-0.376,0-0.681-0.305-0.681-0.681
							s0.305-0.681,0.681-0.681c0.076,0,0.149,0.013,0.217,0.035c-0.023,0.047-0.034,0.1-0.034,0.155
							c0,0.206,0.167,0.374,0.374,0.374c0.038,0,0.075-0.006,0.11-0.017C248.25,466.97,248.255,467.015,248.255,467.061"/>
					</g>
					<g>
						<g>
							<g>
								<rect x="242.908" y="467.83" style="fill:#FFFFFF;" width="0.616" height="0.616"/>
							</g>
							<g>
								<rect x="254.827" y="467.83" style="fill:#FFFFFF;" width="0.616" height="0.616"/>
							</g>
							<g>
								<path style="fill:#FFFFFF;" d="M255.205,468.082h-0.14c0-3.248-2.642-5.89-5.89-5.89c-3.248,0-5.89,2.642-5.89,5.89h-0.14
									c0-1.611,0.627-3.125,1.766-4.264c1.139-1.139,2.653-1.766,4.264-1.766c1.611,0,3.125,0.627,4.264,1.766
									C254.578,464.957,255.205,466.471,255.205,468.082"/>
							</g>
						</g>
						<g>
							<rect x="248.868" y="461.814" style="fill:#FFFFFF;" width="0.616" height="0.616"/>
						</g>
						<g>
							<rect x="244.95" y="462.052" style="fill:#FFFFFF;" width="8.45" height="0.14"/>
						</g>
						<g>
							<path style="fill:#FFFFFF;" d="M245.174,462.15c0,0.108-0.088,0.196-0.196,0.196c-0.108,0-0.196-0.088-0.196-0.196
								c0-0.108,0.088-0.196,0.196-0.196C245.086,461.954,245.174,462.042,245.174,462.15"/>
						</g>
						<g>
							<path style="fill:#FFFFFF;" d="M253.596,462.15c0,0.108-0.088,0.196-0.196,0.196c-0.108,0-0.196-0.088-0.196-0.196
								c0-0.108,0.088-0.196,0.196-0.196C253.509,461.954,253.596,462.042,253.596,462.15"/>
						</g>
					</g>
				</g>
				<g>
					<path style="fill:#FFFFFF;" d="M314.356,473.409c0,1.559-2.364,1.559-2.364,0C311.993,471.851,314.356,471.851,314.356,473.409
						z"/>
				</g>
				<g>
					<g>
						<g>
							<path style="fill:#FFFFFF;" d="M161.739,466.549l1.772,6.088l1.855-6.088h2.215l-2.823,8.14h-2.33l-0.837-2.396l-0.722-2.708
								l-0.722,2.708l-0.837,2.396h-2.33l-2.839-8.14h2.231l1.855,6.088l1.756-6.088H161.739z"/>
						</g>
						<g>
							<path style="fill:#FFFFFF;" d="M176.713,466.549l1.772,6.088l1.855-6.088h2.215l-2.823,8.14h-2.33l-0.837-2.396l-0.722-2.708
								l-0.722,2.708l-0.837,2.396h-2.33l-2.839-8.14h2.231l1.855,6.088l1.756-6.088H176.713z"/>
						</g>
						<g>
							<path style="fill:#FFFFFF;" d="M191.687,466.549l1.772,6.088l1.855-6.088h2.215l-2.823,8.14h-2.33l-0.837-2.396l-0.722-2.708
								l-0.722,2.708l-0.837,2.396h-2.33l-2.839-8.14h2.231l1.855,6.088l1.756-6.088H191.687z"/>
						</g>
					</g>
					<g>
						<path style="fill:#FFFFFF;" d="M200.908,473.52c0,1.559-2.364,1.559-2.364,0C198.545,471.962,200.908,471.962,200.908,473.52z
							"/>
					</g>
					<g>
						<path style="fill:#FFFFFF;" d="M322.71,473.409c-0.935,0.919-1.919,1.28-3.117,1.28c-2.346,0-4.3-1.411-4.3-4.282
							s1.953-4.284,4.3-4.284c1.149,0,2.035,0.329,2.921,1.199l-1.264,1.329c-0.476-0.428-1.066-0.64-1.623-0.64
							c-1.346,0-2.33,0.985-2.33,2.396c0,1.542,1.05,2.362,2.297,2.362c0.64,0,1.28-0.18,1.772-0.672L322.71,473.409z"/>
					</g>
					<g>
						<path style="fill:#FFFFFF;" d="M331.805,470.472c0,2.33-1.591,4.217-4.217,4.217c-2.626,0-4.201-1.887-4.201-4.217
							c0-2.314,1.609-4.217,4.185-4.217C330.149,466.255,331.805,468.158,331.805,470.472z M325.389,470.472
							c0,1.231,0.739,2.38,2.199,2.38c1.46,0,2.199-1.149,2.199-2.38c0-1.215-0.854-2.396-2.199-2.396
							C326.144,468.077,325.389,469.258,325.389,470.472z"/>
					</g>
					<g>
						<path style="fill:#FFFFFF;" d="M338.572,474.689v-4.332c0-1.068-0.559-2.035-1.658-2.035c-1.082,0-1.722,0.967-1.722,2.035
							v4.332h-2.003v-8.107h1.855l0.148,0.985c0.426-0.82,1.362-1.116,2.133-1.116c0.969,0,1.937,0.394,2.396,1.51
							c0.723-1.149,1.658-1.478,2.708-1.478c2.297,0,3.43,1.412,3.43,3.84v4.365h-2.003v-4.365c0-1.066-0.442-1.97-1.526-1.97
							c-1.082,0-1.756,0.935-1.756,2.003v4.332H338.572z"/>
					</g>
				</g>
			</g>
		</g>
		<g style="opacity:0.61;">
			<g>
				<g>
					<path style="fill:#FFFFFF;" d="M345.988,431.299c-0.006-1.224-0.959-2.121-2.189-2.14c-0.924-0.014-0.832,0.12-0.834-0.867
						c-0.003-1.097-0.007-2.194,0.003-3.292c0.003-0.379-0.112-0.691-0.362-0.976c-2.342-2.668-4.678-5.342-7.019-8.011
						c-0.12-0.137-0.275-0.244-0.414-0.366c-6.214,0-12.427,0-18.641,0c-0.794,0.293-1.14,0.868-1.138,1.709
						c0.01,3.748,0.004,7.496,0.004,11.243c0,0.556-0.003,0.589-0.55,0.551c-1.497-0.102-2.516,0.986-2.497,2.492
						c0.044,3.476,0.013,6.953,0.014,10.429c0.001,1.58,0.867,2.443,2.45,2.449c0.582,0.002,0.582,0.002,0.582,0.6
						c0,2.219-0.001,4.438,0.001,6.657c0.001,1.192,0.58,1.771,1.768,1.771c8.013,0.001,16.027,0.001,24.04,0
						c1.168,0,1.755-0.583,1.757-1.745c0.002-2.256,0-4.512,0.001-6.768c0-0.512,0.002-0.511,0.52-0.515
						c0.271-0.002,0.541,0.008,0.809-0.058c0.996-0.246,1.69-1.044,1.694-2.069C346.003,438.696,346.005,434.997,345.988,431.299z
						 M317.537,417.162c5.337,0,10.674,0,16.01,0c0.548,0,0.554,0.007,0.554,0.561c0.001,2.243-0.001,4.486,0.001,6.73
						c0.001,0.811,0.249,1.059,1.06,1.059c1.91,0.001,3.821,0,5.731,0.001c0.458,0,0.479,0.021,0.481,0.483
						c0.003,0.887,0.002,1.775,0,2.662c-0.001,0.477-0.024,0.498-0.504,0.499c-3.895,0.001-7.79,0-11.684,0
						c-3.882,0-7.765,0-11.647,0c-0.55,0-0.552-0.001-0.552-0.561c-0.001-3.624-0.001-7.247,0-10.871
						C316.987,417.166,316.991,417.162,317.537,417.162z M340.822,451.579c-3.883,0.001-7.766,0-11.65,0c-3.871,0-7.742,0-11.613,0
						c-0.572,0-0.574-0.002-0.574-0.579c-0.001-1.997-0.001-3.994,0.001-5.991c0-0.464,0.023-0.486,0.478-0.487
						c7.803-0.001,15.607-0.001,23.41,0c0.478,0,0.499,0.02,0.499,0.503c0.002,1.997,0.001,3.994,0,5.991
						C341.375,451.574,341.37,451.579,340.822,451.579z"/>
				</g>
				<g>
					<g>
						<rect x="327.418" y="417.053" style="fill:#FFFFFF;" width="1.757" height="1.054"/>
					</g>
					<g>
						<rect x="325.662" y="418.107" style="fill:#FFFFFF;" width="1.757" height="1.054"/>
					</g>
					<g>
						<rect x="327.418" y="419.161" style="fill:#FFFFFF;" width="1.757" height="1.054"/>
					</g>
					<g>
						<rect x="325.662" y="420.215" style="fill:#FFFFFF;" width="1.757" height="1.054"/>
					</g>
					<g>
						<rect x="327.418" y="421.269" style="fill:#FFFFFF;" width="1.757" height="1.054"/>
					</g>
					<g>
						<rect x="325.662" y="422.323" style="fill:#FFFFFF;" width="1.757" height="1.054"/>
					</g>
					<g>
						<rect x="327.418" y="423.378" style="fill:#FFFFFF;" width="1.757" height="1.054"/>
					</g>
					<g>
						<rect x="325.662" y="424.432" style="fill:#FFFFFF;" width="1.757" height="1.054"/>
					</g>
					<g>
						<rect x="327.418" y="425.486" style="fill:#FFFFFF;" width="1.757" height="1.054"/>
					</g>
					<g>
						<rect x="325.662" y="426.54" style="fill:#FFFFFF;" width="1.757" height="1.054"/>
					</g>
					<g>
						<rect x="327.418" y="427.594" style="fill:#FFFFFF;" width="1.757" height="1.054"/>
					</g>
					<g>
						<rect x="325.662" y="428.648" style="fill:#FFFFFF;" width="1.757" height="1.054"/>
					</g>
				</g>
			</g>
			<g>
				<path style="fill:#FFFFFF;" d="M187.637,431.299c-0.006-1.224-0.959-2.121-2.189-2.14c-0.924-0.014-0.832,0.12-0.834-0.867
					c-0.003-1.097-0.007-2.194,0.003-3.292c0.003-0.379-0.112-0.691-0.362-0.976c-2.342-2.668-4.678-5.342-7.019-8.011
					c-0.12-0.137-0.275-0.244-0.414-0.366c-6.214,0-12.427,0-18.641,0c-0.794,0.293-1.14,0.868-1.138,1.709
					c0.01,3.748,0.004,7.496,0.004,11.243c0,0.556-0.003,0.589-0.55,0.551c-1.497-0.102-2.516,0.986-2.497,2.492
					c0.044,3.476,0.013,6.953,0.014,10.429c0.001,1.58,0.867,2.443,2.45,2.449c0.582,0.002,0.582,0.002,0.582,0.6
					c0,2.219-0.001,4.438,0.001,6.657c0.001,1.192,0.58,1.771,1.768,1.771c8.013,0.001,16.027,0.001,24.04,0
					c1.168,0,1.755-0.583,1.757-1.745c0.002-2.256,0-4.512,0.001-6.768c0-0.512,0.002-0.511,0.52-0.515
					c0.271-0.002,0.541,0.008,0.809-0.058c0.996-0.246,1.69-1.044,1.694-2.069C187.652,438.696,187.655,434.997,187.637,431.299z
					 M159.187,417.162c5.337,0,10.674,0,16.01,0c0.548,0,0.554,0.007,0.554,0.561c0.001,2.243-0.001,4.486,0.001,6.73
					c0.001,0.811,0.249,1.059,1.06,1.059c1.91,0.001,3.821,0,5.731,0.001c0.458,0,0.479,0.021,0.481,0.483
					c0.003,0.887,0.002,1.775,0,2.662c-0.001,0.477-0.024,0.498-0.504,0.499c-3.895,0.001-7.79,0-11.684,0
					c-3.882,0-7.765,0-11.647,0c-0.55,0-0.552-0.001-0.552-0.561c-0.001-3.624-0.001-7.247,0-10.871
					C158.636,417.166,158.64,417.162,159.187,417.162z M182.472,451.579c-3.883,0.001-7.766,0-11.65,0c-3.871,0-7.742,0-11.613,0
					c-0.572,0-0.574-0.002-0.574-0.579c-0.001-1.997-0.001-3.994,0.001-5.991c0-0.464,0.023-0.486,0.478-0.487
					c7.803-0.001,15.607-0.001,23.41,0c0.478,0,0.499,0.02,0.499,0.503c0.002,1.997,0.001,3.994,0,5.991
					C183.024,451.574,183.019,451.579,182.472,451.579z"/>
			</g>
			<g>
				<path style="fill:#FFFFFF;" d="M159.779,440.669v-7.897h2.779c0.375,0,0.726,0.061,1.053,0.182
					c0.327,0.121,0.612,0.292,0.855,0.513c0.242,0.221,0.434,0.483,0.573,0.789c0.14,0.305,0.21,0.642,0.21,1.009
					c0,0.375-0.07,0.715-0.21,1.02c-0.14,0.305-0.331,0.568-0.573,0.789c-0.243,0.221-0.528,0.392-0.855,0.513
					c-0.327,0.121-0.678,0.182-1.053,0.182h-1.29v2.901H159.779z M162.58,436.356c0.39,0,0.684-0.111,0.882-0.331
					c0.199-0.22,0.298-0.474,0.298-0.761c0-0.14-0.024-0.276-0.072-0.408c-0.048-0.132-0.121-0.248-0.221-0.347
					c-0.099-0.099-0.223-0.178-0.37-0.237c-0.147-0.059-0.32-0.089-0.518-0.089h-1.312v2.173H162.58z"/>
				<path style="fill:#FFFFFF;" d="M166.308,432.771h1.731l3.177,5.294h0.088l-0.088-1.522v-3.772h1.478v7.897h-1.566l-3.353-5.592
					h-0.088l0.088,1.522v4.07h-1.467V432.771z"/>
				<path style="fill:#FFFFFF;" d="M177.922,436.334h3.872c0.022,0.089,0.04,0.195,0.055,0.32c0.014,0.125,0.022,0.25,0.022,0.375
					c0,0.507-0.077,0.985-0.231,1.434c-0.154,0.449-0.397,0.849-0.728,1.202c-0.353,0.375-0.776,0.666-1.268,0.871
					c-0.493,0.206-1.055,0.309-1.688,0.309c-0.574,0-1.114-0.103-1.622-0.309c-0.507-0.206-0.948-0.492-1.323-0.86
					c-0.375-0.367-0.673-0.803-0.894-1.307c-0.221-0.504-0.331-1.053-0.331-1.649c0-0.595,0.11-1.145,0.331-1.649
					c0.221-0.504,0.518-0.939,0.894-1.307c0.375-0.367,0.816-0.654,1.323-0.86c0.507-0.206,1.048-0.309,1.622-0.309
					c0.64,0,1.211,0.11,1.715,0.331c0.504,0.221,0.935,0.526,1.296,0.915l-1.025,1.004c-0.258-0.272-0.544-0.48-0.861-0.623
					c-0.316-0.143-0.695-0.215-1.136-0.215c-0.361,0-0.703,0.065-1.026,0.193c-0.324,0.129-0.607,0.311-0.85,0.546
					c-0.242,0.235-0.436,0.52-0.579,0.855c-0.143,0.335-0.215,0.708-0.215,1.119c0,0.412,0.072,0.785,0.215,1.12
					c0.143,0.335,0.338,0.62,0.584,0.855c0.246,0.235,0.531,0.418,0.855,0.546c0.323,0.129,0.669,0.193,1.037,0.193
					c0.419,0,0.773-0.061,1.064-0.182c0.29-0.121,0.538-0.278,0.744-0.469c0.148-0.132,0.275-0.3,0.381-0.502
					c0.106-0.202,0.189-0.428,0.248-0.678h-2.482V436.334z"/>
			</g>
			<g>
				<path style="fill:#FFFFFF;" d="M224.019,431.299c-0.006-1.224-0.959-2.121-2.189-2.14c-0.924-0.014-0.832,0.12-0.834-0.867
					c-0.003-1.097-0.007-2.194,0.003-3.292c0.003-0.379-0.112-0.691-0.362-0.976c-2.342-2.668-4.678-5.342-7.019-8.011
					c-0.12-0.137-0.275-0.244-0.414-0.366c-6.214,0-12.427,0-18.641,0c-0.794,0.293-1.14,0.868-1.138,1.709
					c0.01,3.748,0.004,7.496,0.004,11.243c0,0.556-0.003,0.589-0.55,0.551c-1.497-0.102-2.516,0.986-2.497,2.492
					c0.044,3.476,0.013,6.953,0.014,10.429c0.001,1.58,0.867,2.443,2.45,2.449c0.582,0.002,0.582,0.002,0.582,0.6
					c0,2.219-0.001,4.438,0.001,6.657c0.001,1.192,0.58,1.771,1.768,1.771c8.013,0.001,16.027,0.001,24.04,0
					c1.168,0,1.755-0.583,1.757-1.745c0.002-2.256,0-4.512,0.001-6.768c0-0.512,0.002-0.511,0.52-0.515
					c0.271-0.002,0.541,0.008,0.809-0.058c0.997-0.246,1.69-1.044,1.694-2.069C224.034,438.696,224.036,434.997,224.019,431.299z
					 M195.568,417.162c5.337,0,10.674,0,16.01,0c0.548,0,0.554,0.007,0.554,0.561c0.001,2.243-0.001,4.486,0.001,6.73
					c0.001,0.811,0.249,1.059,1.06,1.059c1.91,0.001,3.821,0,5.731,0.001c0.458,0,0.479,0.021,0.481,0.483
					c0.003,0.887,0.002,1.775,0,2.662c-0.001,0.477-0.024,0.498-0.504,0.499c-3.895,0.001-7.79,0-11.684,0
					c-3.882,0-7.765,0-11.647,0c-0.55,0-0.552-0.001-0.552-0.561c-0.001-3.624-0.001-7.247,0-10.871
					C195.018,417.166,195.022,417.162,195.568,417.162z M218.854,451.579c-3.883,0.001-7.766,0-11.65,0c-3.871,0-7.742,0-11.613,0
					c-0.572,0-0.574-0.002-0.574-0.579c-0.001-1.997-0.001-3.994,0.001-5.991c0-0.464,0.023-0.486,0.478-0.487
					c7.803-0.001,15.607-0.001,23.41,0c0.478,0,0.499,0.02,0.499,0.503c0.002,1.997,0.001,3.994,0,5.991
					C219.406,451.574,219.401,451.579,218.854,451.579z"/>
			</g>
			<g>
				<path style="fill:#FFFFFF;" d="M205.111,432.771h1.699l2.967,7.897h-1.644l-0.651-1.886h-3.044l-0.651,1.886h-1.643
					L205.111,432.771z M206.997,437.415l-0.706-1.974l-0.287-0.96h-0.088l-0.287,0.96l-0.706,1.974H206.997z"/>
				<path style="fill:#FFFFFF;" d="M211.331,434.536c-0.125,0-0.245-0.024-0.359-0.072c-0.114-0.048-0.213-0.114-0.298-0.199
					c-0.084-0.084-0.151-0.182-0.198-0.292c-0.048-0.11-0.072-0.232-0.072-0.364s0.024-0.254,0.072-0.364
					c0.048-0.11,0.114-0.208,0.198-0.292c0.084-0.084,0.184-0.151,0.298-0.198c0.114-0.048,0.233-0.072,0.359-0.072
					c0.257,0,0.478,0.09,0.662,0.27c0.184,0.181,0.276,0.399,0.276,0.656s-0.092,0.476-0.276,0.656
					C211.809,434.446,211.589,434.536,211.331,434.536z M210.615,440.669v-5.404h1.445v5.404H210.615z"/>
			</g>
			<g>
				<path style="fill:#FFFFFF;" d="M261.044,431.299c-0.006-1.224-0.959-2.121-2.189-2.14c-0.924-0.014-0.832,0.12-0.834-0.867
					c-0.003-1.097-0.007-2.194,0.003-3.292c0.003-0.379-0.112-0.691-0.362-0.976c-2.342-2.668-4.678-5.342-7.019-8.011
					c-0.12-0.137-0.275-0.244-0.414-0.366c-6.214,0-12.427,0-18.641,0c-0.794,0.293-1.14,0.868-1.138,1.709
					c0.01,3.748,0.004,7.496,0.004,11.243c0,0.556-0.003,0.589-0.55,0.551c-1.497-0.102-2.516,0.986-2.497,2.492
					c0.044,3.476,0.013,6.953,0.014,10.429c0.001,1.58,0.867,2.443,2.45,2.449c0.582,0.002,0.582,0.002,0.582,0.6
					c0,2.219-0.001,4.438,0.001,6.657c0.001,1.192,0.58,1.771,1.768,1.771c8.013,0.001,16.027,0.001,24.04,0
					c1.168,0,1.755-0.583,1.757-1.745c0.002-2.256,0-4.512,0.001-6.768c0-0.512,0.002-0.511,0.52-0.515
					c0.271-0.002,0.541,0.008,0.809-0.058c0.996-0.246,1.69-1.044,1.694-2.069C261.059,438.696,261.061,434.997,261.044,431.299z
					 M232.593,417.162c5.337,0,10.674,0,16.01,0c0.548,0,0.554,0.007,0.554,0.561c0.001,2.243-0.001,4.486,0.001,6.73
					c0.001,0.811,0.249,1.059,1.06,1.059c1.91,0.001,3.821,0,5.731,0.001c0.458,0,0.479,0.021,0.481,0.483
					c0.003,0.887,0.002,1.775,0,2.662c-0.001,0.477-0.024,0.498-0.504,0.499c-3.895,0.001-7.79,0-11.684,0
					c-3.882,0-7.765,0-11.647,0c-0.55,0-0.552-0.001-0.552-0.561c-0.001-3.624-0.001-7.247,0-10.871
					C232.042,417.166,232.047,417.162,232.593,417.162z M255.878,451.579c-3.883,0.001-7.766,0-11.65,0c-3.871,0-7.742,0-11.613,0
					c-0.572,0-0.574-0.002-0.574-0.579c-0.001-1.997-0.001-3.994,0.001-5.991c0-0.464,0.023-0.486,0.478-0.487
					c7.803-0.001,15.607-0.001,23.41,0c0.478,0,0.499,0.02,0.499,0.503c0.002,1.997,0.001,3.994,0,5.991
					C256.431,451.574,256.426,451.579,255.878,451.579z"/>
			</g>
			<g>
				<path style="fill:#FFFFFF;" d="M236.361,440.845c-0.338,0-0.662-0.048-0.971-0.143c-0.309-0.095-0.592-0.239-0.849-0.43
					c-0.257-0.191-0.481-0.425-0.673-0.7c-0.191-0.276-0.342-0.597-0.452-0.965l1.401-0.551c0.103,0.397,0.283,0.726,0.54,0.987
					c0.257,0.261,0.596,0.392,1.015,0.392c0.154,0,0.303-0.02,0.447-0.061c0.143-0.04,0.272-0.099,0.386-0.176
					s0.204-0.175,0.27-0.292c0.066-0.118,0.099-0.254,0.099-0.408c0-0.147-0.026-0.279-0.077-0.397
					c-0.051-0.117-0.138-0.227-0.259-0.331c-0.121-0.103-0.28-0.202-0.475-0.298c-0.195-0.095-0.435-0.195-0.722-0.298l-0.485-0.176
					c-0.213-0.073-0.429-0.173-0.645-0.298c-0.217-0.125-0.413-0.276-0.59-0.452c-0.177-0.176-0.322-0.384-0.436-0.623
					c-0.114-0.239-0.171-0.509-0.171-0.81c0-0.309,0.06-0.597,0.182-0.866c0.121-0.268,0.294-0.503,0.518-0.706
					c0.224-0.202,0.492-0.36,0.805-0.474s0.66-0.171,1.042-0.171c0.397,0,0.74,0.053,1.031,0.16
					c0.291,0.107,0.537,0.243,0.739,0.408c0.202,0.165,0.366,0.348,0.491,0.546c0.125,0.199,0.217,0.386,0.276,0.563l-1.312,0.551
					c-0.074-0.221-0.208-0.419-0.402-0.596c-0.195-0.176-0.462-0.265-0.8-0.265c-0.324,0-0.592,0.075-0.805,0.226
					c-0.213,0.151-0.32,0.348-0.32,0.59c0,0.235,0.103,0.436,0.309,0.601c0.206,0.165,0.533,0.325,0.982,0.48l0.497,0.165
					c0.316,0.111,0.605,0.237,0.866,0.381c0.261,0.143,0.485,0.314,0.673,0.513c0.187,0.199,0.331,0.425,0.43,0.678
					c0.1,0.254,0.149,0.546,0.149,0.877c0,0.412-0.083,0.767-0.248,1.064c-0.165,0.298-0.377,0.542-0.634,0.734
					c-0.258,0.191-0.548,0.335-0.872,0.43C236.986,440.797,236.67,440.845,236.361,440.845z"/>
				<path style="fill:#FFFFFF;" d="M239.516,432.771h1.61l1.633,4.754l0.287,1.015h0.088l0.309-1.015l1.699-4.754h1.61l-2.879,7.897
					h-1.566L239.516,432.771z"/>
				<path style="fill:#FFFFFF;" d="M251.097,436.334h3.871c0.022,0.089,0.04,0.195,0.055,0.32c0.015,0.125,0.023,0.25,0.023,0.375
					c0,0.507-0.078,0.985-0.232,1.434c-0.154,0.449-0.397,0.849-0.728,1.202c-0.353,0.375-0.775,0.666-1.268,0.871
					c-0.493,0.206-1.055,0.309-1.688,0.309c-0.574,0-1.114-0.103-1.621-0.309c-0.507-0.206-0.949-0.492-1.324-0.86
					c-0.375-0.367-0.673-0.803-0.894-1.307c-0.22-0.504-0.331-1.053-0.331-1.649c0-0.595,0.11-1.145,0.331-1.649
					c0.221-0.504,0.518-0.939,0.894-1.307c0.375-0.367,0.816-0.654,1.324-0.86c0.507-0.206,1.047-0.309,1.621-0.309
					c0.64,0,1.211,0.11,1.715,0.331c0.504,0.221,0.936,0.526,1.296,0.915l-1.026,1.004c-0.257-0.272-0.544-0.48-0.861-0.623
					c-0.316-0.143-0.694-0.215-1.136-0.215c-0.36,0-0.702,0.065-1.026,0.193c-0.323,0.129-0.607,0.311-0.849,0.546
					c-0.243,0.235-0.436,0.52-0.579,0.855c-0.143,0.335-0.215,0.708-0.215,1.119c0,0.412,0.072,0.785,0.215,1.12
					c0.143,0.335,0.338,0.62,0.585,0.855c0.246,0.235,0.531,0.418,0.854,0.546c0.324,0.129,0.669,0.193,1.037,0.193
					c0.419,0,0.774-0.061,1.064-0.182c0.29-0.121,0.539-0.278,0.745-0.469c0.147-0.132,0.274-0.3,0.38-0.502
					c0.107-0.202,0.189-0.428,0.248-0.678h-2.482V436.334z"/>
			</g>
			<g>
				<path style="fill:#FFFFFF;" d="M297.3,431.299c-0.006-1.224-0.959-2.121-2.189-2.14c-0.924-0.014-0.832,0.12-0.834-0.867
					c-0.003-1.097-0.007-2.194,0.003-3.292c0.003-0.379-0.112-0.691-0.362-0.976c-2.342-2.668-4.678-5.342-7.019-8.011
					c-0.12-0.137-0.275-0.244-0.414-0.366c-6.214,0-12.427,0-18.641,0c-0.794,0.293-1.14,0.868-1.138,1.709
					c0.01,3.748,0.004,7.496,0.004,11.243c0,0.556-0.003,0.589-0.55,0.551c-1.497-0.102-2.516,0.986-2.497,2.492
					c0.044,3.476,0.013,6.953,0.014,10.429c0.001,1.58,0.867,2.443,2.45,2.449c0.582,0.002,0.582,0.002,0.582,0.6
					c0,2.219-0.001,4.438,0.001,6.657c0.001,1.192,0.58,1.771,1.768,1.771c8.013,0.001,16.027,0.001,24.04,0
					c1.168,0,1.755-0.583,1.757-1.745c0.002-2.256,0-4.512,0.001-6.768c0-0.512,0.002-0.511,0.52-0.515
					c0.271-0.002,0.541,0.008,0.809-0.058c0.996-0.246,1.69-1.044,1.694-2.069C297.315,438.696,297.318,434.997,297.3,431.299z
					 M268.85,417.162c5.337,0,10.674,0,16.01,0c0.548,0,0.554,0.007,0.554,0.561c0.001,2.243-0.001,4.486,0.001,6.73
					c0.001,0.811,0.249,1.059,1.06,1.059c1.91,0.001,3.821,0,5.731,0.001c0.458,0,0.479,0.021,0.481,0.483
					c0.003,0.887,0.002,1.775,0,2.662c-0.001,0.477-0.024,0.498-0.504,0.499c-3.895,0.001-7.79,0-11.684,0
					c-3.882,0-7.765,0-11.647,0c-0.55,0-0.552-0.001-0.552-0.561c-0.001-3.624-0.001-7.247,0-10.871
					C268.299,417.166,268.303,417.162,268.85,417.162z M292.135,451.579c-3.883,0.001-7.766,0-11.65,0c-3.871,0-7.742,0-11.613,0
					c-0.572,0-0.574-0.002-0.574-0.579c-0.001-1.997-0.001-3.994,0.001-5.991c0-0.464,0.023-0.486,0.478-0.487
					c7.803-0.001,15.607-0.001,23.41,0c0.478,0,0.499,0.02,0.499,0.503c0.001,1.997,0.001,3.994,0,5.991
					C292.687,451.574,292.682,451.579,292.135,451.579z"/>
			</g>
			<g>
				<path style="fill:#FFFFFF;" d="M272.966,434.183v1.831h3.165v1.412h-3.165v1.831h3.518v1.412h-5.007v-7.897h5.007v1.412H272.966
					z"/>
				<path style="fill:#FFFFFF;" d="M277.852,440.669v-7.897h2.779c0.375,0,0.726,0.061,1.053,0.182
					c0.327,0.121,0.612,0.292,0.855,0.513c0.243,0.221,0.434,0.483,0.574,0.789c0.14,0.305,0.209,0.642,0.209,1.009
					c0,0.375-0.07,0.715-0.209,1.02c-0.14,0.305-0.331,0.568-0.574,0.789c-0.243,0.221-0.528,0.392-0.855,0.513
					c-0.327,0.121-0.678,0.182-1.053,0.182h-1.29v2.901H277.852z M280.653,436.356c0.389,0,0.684-0.111,0.882-0.331
					c0.199-0.22,0.298-0.474,0.298-0.761c0-0.14-0.024-0.276-0.072-0.408c-0.048-0.132-0.121-0.248-0.221-0.347
					c-0.099-0.099-0.222-0.178-0.37-0.237c-0.147-0.059-0.32-0.089-0.518-0.089h-1.312v2.173H280.653z"/>
				<path style="fill:#FFFFFF;" d="M286.797,440.845c-0.338,0-0.662-0.048-0.971-0.143c-0.309-0.095-0.592-0.239-0.849-0.43
					c-0.257-0.191-0.482-0.425-0.673-0.7c-0.191-0.276-0.342-0.597-0.452-0.965l1.401-0.551c0.103,0.397,0.283,0.726,0.541,0.987
					c0.257,0.261,0.595,0.392,1.015,0.392c0.154,0,0.303-0.02,0.447-0.061c0.143-0.04,0.272-0.099,0.386-0.176
					c0.114-0.077,0.204-0.175,0.27-0.292c0.066-0.118,0.1-0.254,0.1-0.408c0-0.147-0.026-0.279-0.077-0.397
					c-0.051-0.117-0.138-0.227-0.259-0.331c-0.121-0.103-0.279-0.202-0.474-0.298c-0.195-0.095-0.436-0.195-0.723-0.298
					l-0.485-0.176c-0.213-0.073-0.428-0.173-0.645-0.298c-0.217-0.125-0.414-0.276-0.59-0.452c-0.176-0.176-0.322-0.384-0.436-0.623
					c-0.114-0.239-0.171-0.509-0.171-0.81c0-0.309,0.061-0.597,0.182-0.866c0.121-0.268,0.294-0.503,0.518-0.706
					c0.224-0.202,0.493-0.36,0.805-0.474c0.312-0.114,0.66-0.171,1.042-0.171c0.397,0,0.741,0.053,1.031,0.16
					c0.29,0.107,0.537,0.243,0.739,0.408c0.202,0.165,0.365,0.348,0.491,0.546c0.125,0.199,0.217,0.386,0.276,0.563l-1.312,0.551
					c-0.074-0.221-0.208-0.419-0.403-0.596c-0.195-0.176-0.462-0.265-0.799-0.265c-0.324,0-0.592,0.075-0.805,0.226
					c-0.213,0.151-0.32,0.348-0.32,0.59c0,0.235,0.103,0.436,0.309,0.601c0.206,0.165,0.533,0.325,0.982,0.48l0.496,0.165
					c0.316,0.111,0.605,0.237,0.866,0.381c0.261,0.143,0.485,0.314,0.673,0.513c0.187,0.199,0.331,0.425,0.43,0.678
					c0.099,0.254,0.149,0.546,0.149,0.877c0,0.412-0.083,0.767-0.248,1.064c-0.165,0.298-0.377,0.542-0.634,0.734
					c-0.258,0.191-0.548,0.335-0.872,0.43C287.422,440.797,287.105,440.845,286.797,440.845z"/>
			</g>
			<g>
				<path style="fill:#FFFFFF;" d="M321.394,439.168l4.004-4.985h-3.827v-1.412h5.559v1.5l-3.96,4.985h4.004v1.412h-5.779V439.168z"
					/>
				<path style="fill:#FFFFFF;" d="M328.409,432.771h1.489v7.897h-1.489V432.771z"/>
				<path style="fill:#FFFFFF;" d="M331.486,440.669v-7.897h2.779c0.375,0,0.726,0.061,1.053,0.182
					c0.327,0.121,0.612,0.292,0.855,0.513s0.434,0.483,0.574,0.789c0.14,0.305,0.209,0.642,0.209,1.009
					c0,0.375-0.07,0.715-0.209,1.02c-0.14,0.305-0.331,0.568-0.574,0.789c-0.243,0.221-0.528,0.392-0.855,0.513
					c-0.327,0.121-0.678,0.182-1.053,0.182h-1.29v2.901H331.486z M334.288,436.356c0.389,0,0.684-0.111,0.882-0.331
					c0.199-0.22,0.298-0.474,0.298-0.761c0-0.14-0.024-0.276-0.072-0.408c-0.048-0.132-0.121-0.248-0.221-0.347
					c-0.099-0.099-0.222-0.178-0.37-0.237c-0.147-0.059-0.32-0.089-0.518-0.089h-1.312v2.173H334.288z"/>
			</g>
		</g>
		<g style="opacity:0.61;">
			<path style="fill:#FFFFFF;" d="M300.133,433.27h9.067v2.242h-9.067V433.27z M300.133,437.136h9.067v2.243h-9.067V437.136z"/>
		</g>
	</g>
	<g style="opacity:0.61;">
		<path style="fill:#FFFFFF;" d="M156.756,478.878h1.607c1.263,0,2.114,0.812,2.114,1.974c0,1.161-0.851,1.973-2.114,1.973h-1.607
			V478.878z M158.34,482.464c1.049,0,1.725-0.665,1.725-1.612c0-0.947-0.677-1.613-1.725-1.613h-1.167v3.225H158.34z"/>
		<path style="fill:#FFFFFF;" d="M165.139,480.851c0-1.15,0.879-2.007,2.075-2.007c1.184,0,2.069,0.851,2.069,2.007
			c0,1.156-0.885,2.007-2.069,2.007C166.019,482.858,165.139,482.002,165.139,480.851z M168.866,480.851
			c0-0.942-0.705-1.635-1.652-1.635c-0.953,0-1.663,0.693-1.663,1.635c0,0.941,0.71,1.635,1.663,1.635
			C168.162,482.486,168.866,481.793,168.866,480.851z"/>
		<path style="fill:#FFFFFF;" d="M179.596,478.878l-1.331,3.947h-0.44l-1.156-3.366l-1.161,3.366h-0.434l-1.331-3.947h0.429
			l1.139,3.394l1.178-3.394h0.389l1.161,3.411l1.156-3.411H179.596z"/>
		<path style="fill:#FFFFFF;" d="M187.731,478.878v3.947h-0.344l-2.537-3.202v3.202h-0.417v-3.947h0.344l2.543,3.203v-3.203H187.731
			z"/>
		<path style="fill:#FFFFFF;" d="M193.093,478.878h0.417v3.586h2.21v0.361h-2.627V478.878z"/>
		<path style="fill:#FFFFFF;" d="M200.061,480.851c0-1.15,0.879-2.007,2.075-2.007c1.184,0,2.069,0.851,2.069,2.007
			c0,1.156-0.885,2.007-2.069,2.007C200.941,482.858,200.061,482.002,200.061,480.851z M203.788,480.851
			c0-0.942-0.705-1.635-1.652-1.635c-0.953,0-1.663,0.693-1.663,1.635c0,0.941,0.71,1.635,1.663,1.635
			C203.083,482.486,203.788,481.793,203.788,480.851z"/>
		<path style="fill:#FFFFFF;" d="M211.636,481.77h-2.199l-0.474,1.054h-0.434l1.804-3.947h0.412l1.804,3.947h-0.44L211.636,481.77z
			 M211.484,481.432l-0.947-2.12l-0.947,2.12H211.484z"/>
		<path style="fill:#FFFFFF;" d="M217.28,478.878h1.607c1.263,0,2.114,0.812,2.114,1.974c0,1.161-0.851,1.973-2.114,1.973h-1.607
			V478.878z M218.864,482.464c1.049,0,1.725-0.665,1.725-1.612c0-0.947-0.677-1.613-1.725-1.613h-1.167v3.225H218.864z"/>
		<path style="fill:#FFFFFF;" d="M234.041,481.77h-2.199l-0.474,1.054h-0.434l1.804-3.947h0.412l1.804,3.947h-0.44L234.041,481.77z
			 M233.889,481.432l-0.947-2.12l-0.947,2.12H233.889z"/>
		<path style="fill:#FFFFFF;" d="M239.685,478.878h0.417v3.586h2.21v0.361h-2.627V478.878z"/>
		<path style="fill:#FFFFFF;" d="M247.082,478.878h0.417v3.586h2.21v0.361h-2.627V478.878z"/>
		<path style="fill:#FFFFFF;" d="M260.449,479.239v1.551h2.041v0.361h-2.041v1.675h-0.417v-3.947h2.706v0.361H260.449z"/>
		<path style="fill:#FFFFFF;" d="M267.678,478.878h0.417v3.947h-0.417V478.878z"/>
		<path style="fill:#FFFFFF;" d="M273.456,478.878h0.417v3.586h2.21v0.361h-2.627V478.878z"/>
		<path style="fill:#FFFFFF;" d="M283.644,482.464v0.361h-2.791v-3.947h2.706v0.361h-2.289v1.404h2.041v0.355h-2.041v1.466H283.644z
			"/>
		<path style="fill:#FFFFFF;" d="M294.672,479.239v1.551h2.041v0.361h-2.041v1.675h-0.417v-3.947h2.706v0.361H294.672z"/>
		<path style="fill:#FFFFFF;" d="M301.5,480.851c0-1.15,0.879-2.007,2.075-2.007c1.184,0,2.069,0.851,2.069,2.007
			c0,1.156-0.885,2.007-2.069,2.007C302.379,482.858,301.5,482.002,301.5,480.851z M305.226,480.851
			c0-0.942-0.705-1.635-1.652-1.635c-0.953,0-1.663,0.693-1.663,1.635c0,0.941,0.71,1.635,1.663,1.635
			C304.522,482.486,305.226,481.793,305.226,480.851z"/>
		<path style="fill:#FFFFFF;" d="M313.351,482.825l-0.902-1.269c-0.102,0.011-0.203,0.017-0.316,0.017h-1.06v1.252h-0.417v-3.947
			h1.477c1.004,0,1.613,0.507,1.613,1.353c0,0.62-0.327,1.054-0.902,1.24l0.964,1.353H313.351z M313.328,480.231
			c0-0.632-0.417-0.992-1.207-0.992h-1.048v1.979h1.048C312.911,481.218,313.328,480.851,313.328,480.231z"/>
		<path style="fill:#FFFFFF;" d="M322.907,478.878v3.947h-0.4v-3.158l-1.551,2.656h-0.197l-1.551-2.639v3.14h-0.4v-3.947h0.344
			l1.714,2.926l1.697-2.926H322.907z"/>
		<path style="fill:#FFFFFF;" d="M330.744,481.77h-2.199l-0.473,1.054h-0.434l1.804-3.947h0.411l1.804,3.947h-0.44L330.744,481.77z
			 M330.592,481.432l-0.947-2.12l-0.947,2.12H330.592z"/>
		<path style="fill:#FFFFFF;" d="M336.957,479.239h-1.387v-0.361h3.192v0.361h-1.387v3.586h-0.417V479.239z"/>
		<path style="fill:#FFFFFF;" d="M343.063,482.346l0.164-0.321c0.282,0.276,0.784,0.479,1.302,0.479c0.739,0,1.06-0.31,1.06-0.699
			c0-1.083-2.43-0.417-2.43-1.877c0-0.581,0.451-1.083,1.455-1.083c0.446,0,0.908,0.13,1.224,0.35l-0.141,0.333
			c-0.338-0.22-0.733-0.327-1.083-0.327c-0.722,0-1.043,0.321-1.043,0.716c0,1.083,2.43,0.429,2.43,1.866
			c0,0.581-0.462,1.077-1.472,1.077C343.937,482.858,343.356,482.65,343.063,482.346z"/>
	</g>
</g>
<g>
</g>
<g>
	<path d="M464.337,70.941c-1.229-0.565-4.249-1.458-7.702,1.16c-6.209,1.595-19.63,7.219-24.61,9.43
		c-5.758,0.525-38.994,3.442-66.01,3.442c-26.177,0-52.305,9.333-62.9,21.337c-11.106-11.342-40.832-32.729-97.001-16.026
		c-9.333,2.312-18.434,5.765-27.059,10.267c-1.372,0.613-10.186,4.703-20.606,13.063c-11.907-20.897-46.173-13.209-63.017-9.427
		l-1.865,0.417c-10.39,2.313-39.959-7.83-56.152-14.769c-1.642-0.701-3.531-0.533-5.023,0.45C30.899,91.27,30,92.938,30,94.726
		c0,50.289,18.635,79.252,34.267,94.693c17.357,17.145,37.714,24.393,48.768,25.528c-7.162,9.755-10.153,19.443-8.884,28.86
		c1.178,8.745,5.829,15.205,9.58,19.126c-3.805,20.937,11.379,35.164,17.41,39.896c-0.168,0.321-0.333,0.622-0.501,0.946
		c-0.24,0.462-0.411,0.958-0.507,1.468c-0.376,1.993-7.961,43.75,10.022,61.758c-9.629,11.129-11.527,25.689-5.276,41.184
		c3.428,8.495,10.478,14.835,19.343,17.391c10.076,2.906,23.279,4.099,38.109,4.099c59.915-0.003,146.212-19.5,158.453-24.386
		c7.029-1.328,34.852-7.455,38.965-21.848c3.723-13.03,2.645-43.23-16.717-53.986c-0.422-0.235-0.874-0.399-1.339-0.511
		c6.378-8.842,10.493-18.938,9.362-29.116c-0.682-6.143-3.67-12.502-7.349-18.262c0.007-0.006,0.016-0.009,0.023-0.015
		c0.845-0.661,8.254-6.616,10.71-13.81c0.065-0.171,0.121-0.348,0.168-0.526c0.857-2.81,0.868-5.569,0.041-8.068
		c-0.013-3.176-0.013-6.947-0.016-10.021c0.124-1.998,2.527-14.769,3.622-17.688c1.286-3.427,4.246-19.858-1.025-29.801
		c22.748-7.268,71.356-31.56,82.463-107.917c0.017-0.118,0.03-0.237,0.04-0.357C471.211,74.103,466.217,71.805,464.337,70.941z
		 M156.373,128.742c0.898-0.22,1.724-0.67,2.396-1.306c12.428-11.761,24.552-17.139,24.545-17.139
		c0.042-0.017,0.091-0.036,0.138-0.057c0.128-0.055,0.255-0.114,0.379-0.18c7.954-4.166,16.351-7.354,24.956-9.475
		c0.082-0.021,0.165-0.043,0.246-0.068c64.69-19.287,89.331,16.279,90.334,17.78c1.143,1.745,3.205,2.665,5.261,2.346
		c2.062-0.317,3.749-1.81,4.313-3.818c2.399-8.542,27.422-21.212,57.075-21.212c23.287,0,51.026-2.123,62.506-3.094
		c-6.281,2.907-13.24,6.438-19.971,9.995c-1.694-1.879-4.53-2.326-6.741-0.956c-6.986,4.317-13.267,7.875-18.668,10.575
		c-21.639,10.821-49.593,35.186-50.772,36.218c-0.926,0.81-1.542,1.915-1.744,3.129c0,0-0.335,2.007-0.799,5.146
		c-0.345,2.334,0.889,4.618,3.033,5.607c1.715,0.791,3.688,0.601,5.203-0.417c3.746,4.04,6.139,15.373,7.102,25.127
		c-1.843,0.133-3.547,1.224-4.402,2.973c-0.654,1.339-2.023,2.048-5.772,3.733c-4.947,2.227-11.652,5.242-19.468,13.223
		l-34.234,11.427c-0.055,0.017-0.109,0.035-0.163,0.055v-0.002c-2.768,1.001-5.38,1.823-7.763,2.44
		c-15.906,4.125-23.601,8.116-27.178,11.354h-37.981c-11.991,0-33.726-1.354-39.501-1.728c-6.481-4.017-24.594-11.361-34.786-15.368
		c-5.197-23.146-3.177-44.17,6.017-62.528c0.395-0.79,0.578-1.643,0.562-2.488c0.708-0.447,1.32-1.068,1.766-1.841
		c1.21-2.102,2.524-4.175,3.902-6.158c0.1-0.142,0.192-0.291,0.277-0.443c0.539-0.965,1.045-1.889,1.529-2.771
		C151.81,131.816,153.309,129.488,156.373,128.742z M171.824,286.098c0.034-0.163,0.061-0.327,0.079-0.488l0.029,0.005l0.08-0.358
		c0.015-0.062,0.028-0.123,0.04-0.185c0.023-0.076,0.042-0.154,0.061-0.232l0.113-0.459c0.015-0.062,0.029-0.123,0.042-0.185
		c0.023-0.074,0.044-0.149,0.064-0.225l0.12-0.457c0.042-0.156,0.076-0.31,0.103-0.466l0.023,0.005l0.106-0.376
		c0.023-0.08,0.045-0.161,0.065-0.242c0.017-0.052,0.034-0.104,0.049-0.158l0.143-0.478c0.001-0.002,0.001-0.002,0.001-0.002
		c0.039-0.13,0.073-0.26,0.101-0.39l0.014,0.003l0.132-0.417c0.042-0.13,0.078-0.261,0.109-0.393
		c0.045-0.111,0.087-0.225,0.125-0.341l0.118-0.364c0.021-0.064,0.041-0.128,0.059-0.192c0.03-0.078,0.059-0.159,0.086-0.241
		l0.091-0.268c0.023-0.068,0.045-0.135,0.065-0.203c0.029-0.076,0.057-0.152,0.084-0.23l0.075-0.218
		c0.027-0.074,0.051-0.149,0.074-0.223c0.022-0.054,0.042-0.109,0.061-0.163l0.061-0.17c0.001-0.002,0.027-0.076,0.028-0.076
		c0.055-0.152,0.102-0.306,0.142-0.459l0.02,0.007l-0.02-0.009c0.001-0.002,0.002-0.005,0.003-0.007
		c0.005-0.012,0.011-0.024,0.017-0.036l0.017,0.007c0.027-0.074,0.052-0.147,0.076-0.22c0.02-0.048,0.04-0.099,0.059-0.149
		c0.002-0.007,0.019-0.052,0.022-0.057c0.313-0.833,0.403-1.695,0.3-2.521c0.17-0.267,0.319-0.552,0.443-0.855l0.196-0.476
		c0.006,0.023,0.011,0.045,0.016,0.068c0.034,0.135,0.074,0.27,0.118,0.402c0.037,0.111,0.077,0.22,0.121,0.327
		c-0.035,0.52,0.006,1.046,0.127,1.565c0.253,1.081,0.833,2.04,1.642,2.762c-2.365,3.358-4.268,6.055-5.764,8.161L171.824,286.098z
		 M264.121,287.006c-0.016,0-0.032,0-0.048-0.002c-0.609-0.022-1.236-0.033-1.868-0.035c-0.078,0.002-0.145,0.002-0.214,0.003
		c-0.09-0.003-0.184-0.005-0.271-0.005l-1.007,0.012v0.022c-0.171-0.012-0.339-0.014-0.519-0.01
		c-0.469,0.014-0.941,0.029-1.417,0.052c-0.035,0.002-0.071,0.002-0.107,0.003c-0.504,0.024-1.012,0.055-1.52,0.088
		c-0.004,0-0.01,0-0.015,0c-0.091,0.007-0.18,0.014-0.269,0.024c-0.075,0.003-0.15,0.007-0.226,0.012l-1.055,0.083
		c-0.091,0.007-0.181,0.017-0.271,0.029c-0.106,0.003-0.213,0.01-0.32,0.019l-0.973,0.094c-2.356,0.236-4.199,1.974-4.673,4.17
		c-5.052,1.647-17.841,4.762-28.851,7.167c-5.797,0.956-22.104,3.072-30.039,1.752c-4.141-0.691-5.522-6.601-5.977-10.036
		c2.165-1.851,5.011-4.81,6.315-8.409c2.156-5.95-1.717-9.995-3.367-11.631c-0.064-0.168-0.137-0.332-0.217-0.494
		c-0.02-0.45-0.098-0.906-0.239-1.356c-0.335-1.07-0.728-2.192-0.987-2.916c-0.114-1.186-0.41-2.253-0.815-3.2
		c9.41-5.806,32.832-17.411,61.299-10.679c0.323,1.243,1.087,2.336,2.161,3.065c0.277,0.511,1.12,2.506,1.442,8.255
		c0.116,2.069,1.416,3.851,3.282,4.62c-1.877,0.821-3.186,2.696-3.186,4.878c0,2.939,2.39,5.319,5.328,5.319
		c1.284,0,2.461-0.455,3.38-1.212c0.487,0.308,1.03,0.544,1.618,0.682c1.33,0.317,3.852,3.829,6.21,9.815
		c-0.131-0.012-0.262-0.026-0.394-0.038c-0.077-0.007-0.152-0.012-0.229-0.016c-0.067-0.009-0.133-0.014-0.201-0.021
		c-0.055-0.003-0.11-0.007-0.164-0.012c-0.449-0.035-0.906-0.064-1.374-0.085C264.271,287.013,264.196,287.009,264.121,287.006z
		 M257.519,267.66c0.865-0.379,1.629-0.987,2.194-1.778c0.304,0.033,0.775,0.119,1.45,0.336c0.611,0.194,1.197,0.388,1.76,0.578
		l-1.518,0.094c-1.157,0.071-2.215,0.509-3.055,1.202C258.088,267.925,257.81,267.78,257.519,267.66z M344.439,340.601
		c-8.296,5.671-30.191,1.733-46.607-3.209c4.614-5.984,6.56-13.252,6.85-14.41c0.609-2.435-0.568-4.965-2.822-6.068
		c-2.255-1.1-4.973-0.481-6.523,1.493c-2.317,2.951-4.825,6.123-6.545,8.275c-0.899,0.459-1.669,1.172-2.194,2.088
		c-2.161,0.855-6.463,2.068-10.605,0.346c-4.767-1.983-8.599-7.623-11.1-16.324c-0.1-1.401-0.281-3.661-0.541-6.128
		c0.736,1.678,1.251,3.858,1.506,6.435c0.613,6.216,3.665,10.545,8.164,11.584c3.98,0.918,8.008-1.025,10.503-5.077
		c5.37-8.719,3.998-26.578-15.865-50.62c4.216,1.827,5.882,3.138,6.034,3.261c1.339,1.202,3.201,1.645,4.939,1.176
		c1.028-0.279,1.93-0.852,2.61-1.626c0.09,0.043,0.186,0.092,0.29,0.149c5.109,2.743,9.345,6.029,9.384,6.061
		c2.247,1.759,5.464,1.418,7.312-0.755c1.849-2.17,1.642-5.425-0.448-7.365c-0.718-0.663-1.492-1.716-1.792-2.386
		c0.603-0.391,2.194-1.164,5.889-1.694c8.797-1.271,16.086,4.634,16.691,8.308c0.459,2.79-4.597,4.75-9.066,5.579
		c-2.816,0.521-4.712,3.179-4.291,6.01c0.421,2.833,3.003,4.828,5.853,4.506c7.257-0.812,12.543-3.382,15.711-7.638
		c2.807-3.771,3.713-8.53,2.693-14.142c-1.597-8.779-6.475-12.951-10.287-14.906c-0.834-0.428-1.691-0.79-2.567-1.093
		c13.103-0.433,23.663,4.771,30.632,9.636c-0.098,0.152-0.189,0.31-0.272,0.474c-1.08,2.128-0.61,4.715,1.149,6.329
		c5.509,5.049,20.085,20.665,21.359,32.128C372.026,314.911,358.064,331.278,344.439,340.601z M95.875,114.991l1.886-0.423
		c13.937-3.129,42.082-9.444,50.953,3.576c-3.562,4.752-10.756,14.732-14.949,23.178c-5.752-5.115-15.057-11.934-26.184-14.722
		c-7.52-1.884-20.269-7.439-31.758-12.842C83.556,115.395,90.77,116.126,95.875,114.991z M44.658,131.8
		c0.937,0.239,1.949,0.223,2.928-0.095c2.613-0.84,4.158-3.531,3.566-6.211c-0.656-2.971-1.039-6.345-1.042-8.636
		c6.037,2.468,19.318,9.633,30.388,16.144c0.48,0.282,1,0.487,1.543,0.608c28.931,6.429,41.442,16.284,42.004,19.501
		c-4.98,9.565-5.261,33.524-3.874,46.786c0.214,2.042-0.052,3.598-0.729,4.272c-0.463,0.461-1.185,0.592-1.551,0.603
		c-0.561-0.196-1.152-0.296-1.748-0.296c-0.022,0-0.043,0-0.065,0c-6.987,0.102-26.83-5.333-44.335-22.625
		C58.501,168.77,49.447,152.015,44.658,131.8z M123.836,267.814c1.402-0.603,2.512-1.799,2.984-3.326
		c0.69-2.227-0.163-4.651-2.086-5.969c-0.087-0.061-8.742-6.1-10.055-16.239c-0.822-6.35,1.332-13.167,6.409-20.324
		c5.599,5.091,15.957,12.717,28.748,13.903c0.465,0.043,0.895,0.088,1.293,0.137c-0.603,1.16-0.775,2.535-0.408,3.867
		c0.657,2.381,2.843,3.96,5.339,3.901c6.505-0.258,13.481,0.003,16.447,0.568c0.178,0.27,0.381,0.528,0.607,0.771
		c1.422,1.527,3.072,2.116,6.103,2.152c-7.63,3.522-15.114,8.263-21.958,14.61c-2.029,1.605-16.901,13.732-23.524,29.084
		C129.034,286.235,123.176,278.195,123.836,267.814z M140.449,307.975c6.935-13.262,12.621-22.123,17.108-28.043
		c-0.344,1.051-0.694,2.151-1.052,3.302c-5.551,17.87-1.61,28.648,1.234,33.482c2.457,4.178,5.912,7.003,9.478,7.749
		c0.741,0.152,1.494,0.189,2.236,0.109c-0.13,0.154-0.254,0.287-0.368,0.398c-1.689,1.661-3.779,1.532-5.605,1.273
		c-0.627-0.087-1.1-0.121-1.378-0.121c-2.353,0-4.364,1.294-5.246,3.373c-0.904,2.133-0.36,3.903,0.535,5.306
		c-0.916,0.407-1.813,0.961-2.597,1.745c-1.796,1.796-2.264,4.383-1.193,6.592c1.383,2.855,4.688,4.055,9.559,3.489
		c0.497-0.059,0.979-0.133,1.447-0.225c-4.747,12.776-10.927,15.401-13.111,15.936C135.992,354.086,138.115,321.221,140.449,307.975
		z M379.518,380.518c-1.793,6.277-19.696,12.312-31.232,14.414c-0.49,0.088-0.967,0.246-1.413,0.468
		c-9.875,4.9-141.305,33.912-189.704,19.953c-5.7-1.643-10.229-5.706-12.423-11.146c-2.709-6.715-4.561-15.825-0.4-24.468
		c0.425,0.331,0.887,0.634,1.392,0.902c2.48,1.319,6.68,2.144,12.604-1.394c12.247-7.323,26.196-30.126,28.451-63.172
		c0.846-0.868,1.629-1.751,2.293-2.644c9.217,1.131,32.351,3.455,59.492-7.236c0.657,14.511,7.86,33.891,32.47,39.621l5.914,3.165
		l6.767,3.472c0.104,0.054,0.21,0.104,0.317,0.151c30.49,13.188,66.915,0.357,68.451-0.194c2.203-0.793,3.629-2.935,3.512-5.273
		c-0.071-1.416-0.698-2.703-1.685-3.624l4.743-4.023C381.121,347.565,382.379,370.504,379.518,380.518z M376.465,217.388
		c0.001,0.263-0.022,0.625-0.136,0.854c-0.727,1.455-1.355,3.203-1.919,5.349c-0.671,2.551,0.629,5.209,3.055,6.244
		c0.048,0.021,0.096,0.04,0.144,0.059c-1.552,5.659-3.615,16.926-3.615,19.098c0,3.545,0,7.81,0.017,11.181
		c0.004,0.757,0.17,1.505,0.486,2.192c0.072,0.158,0.293,0.637-0.1,1.846c-0.011,0.035-0.022,0.069-0.033,0.106
		c-0.534,1.557-1.745,3.299-3.102,4.878l-10.342-14.94l1.541-2.312c1.088-1.633,1.277-3.73,0.352-5.46
		c-0.926-1.728-2.642-2.807-4.603-2.807c-0.186-0.01-4.884-0.291-32.94-5.242c-26.719-4.719-44.63,9.571-50.794,15.557
		c-3.661-0.651-8.555-1.016-12.311-1.216c-1.286-4.919-4.45-8.76-7.003-11.198c1.982-1.789,7.004-5.067,19.628-9.484
		c12.079-4.229,26.488-7.886,36.024-10.307c6.988-1.773,10.421-2.658,12.081-3.368c2.935-1.259,5.656-3.569,8.808-6.242
		c5.044-4.282,10.762-9.136,18.651-11.003c7.756-1.834,12.671,0.729,14.909,2.417c1.408,1.067,3.252,1.365,4.924,0.79
		c0.216-0.073,0.427-0.161,0.629-0.26c0.412,0.005,1.061,0.035,2.033,0.126c0.32,0.033,0.639,0.033,0.949,0.007
		c0.31,0.097,0.631,0.168,0.962,0.21l0.454,0.057c0.764,0.102,1.584,0.383,2.405,1.728c0.979,1.607,1.526,3.881,1.785,6.36
		C377.646,213.49,376.457,215.31,376.465,217.388z M375.001,193.819l-8.533-4.369c-0.687-0.35-1.441-0.549-2.21-0.58
		c-2.046-0.081-3.659-0.326-4.841-0.58c-2.509-25.825-4.823-32.313-6.623-34.546c0.391-2.414,3.865-8.731,14.32-14.727
		c31.939-18.32,70.123-37.785,79.909-39.408c0.71,2.726-0.021,8.997-1.819,14.307c-0.919,2.694,0.445,5.635,3.096,6.672
		c1.437,0.561,2.977,0.457,4.268-0.171C432.35,180.917,383.465,192.287,375.001,193.819z M459.154,92.086
		c-0.407-1.046-0.951-2.014-1.655-2.874c-1.368-1.669-3.668-3.411-7.385-3.638c4.1-1.567,7.476-2.746,8.979-3.16
		C459.345,84.981,459.387,88.671,459.154,92.086z"/>
	<g>
		<path style="fill:#A88568;" d="M248.6,243.054c0,0,9.261,6.021,8.813,14.845c0,0,14.988,0.454,18.796,1.979
			c0,0-2.369-5.938,3.379-8.412c5.748-2.474,58.572-25.834,59.644-29.226c1.072-3.392,41.514-13.317,42.571-4.808
			c1.057,8.509-14.118,20.034-14.118,20.034s-6.928,2.376-2.969,9.61c3.959,7.235,14.892,17.921,14.745,18.784
			c-0.147,0.863-0.147-9.558-0.147-16.868c0-1.773,2.598-15.796,3.959-19.424c1.361-3.627,5.208-28.641-7.355-30.32
			c-12.562-1.678-5.47,1.868-5.47,1.868s-7.175-8.465-21.319-5.119c-14.144,3.346-22.123,14.872-28.329,17.531
			S248.213,229.136,248.6,243.054z"/>
		<path style="fill:#A88568;" d="M254.302,297.895c0,0-5.71,35.384,28.62,42.889l6.467,3.464l23.431,12.02
			c0,0,33.649-4.536,40.762,9.258s-1.753,20.886-1.753,20.886s9.001,8-2.592,13.752c-10.699,5.308-143.393,34.76-193.543,20.3
			c-7.219-2.081-13.072-7.302-15.883-14.269c-3.794-9.405-6.5-24.065,5.151-36.629c0,0,0.61,11.113,10.647,5.113
			c10.037-6,24.222-27.278,25.995-60.968c0,0,4.836-4.577,4.191-5.835C185.152,306.62,217.063,315.767,254.302,297.895z"/>
		<path style="fill:#A88568;" d="M257.413,297.582c0,0,11.964-2.983,13.737,14.996s27.045,0.247-6.869-40.535l-8.817,0.541
			c0,0-4.602-15.234,7.315-11.434c11.917,3.8,15.464,7.137,15.464,7.137s1.196-4.04,6.804-1.029
			c5.608,3.011,10.144,6.558,10.144,6.558s-11.752-10.591,6.928-13.275s35.485,19.534,9.351,24.384c0,0-15.557,12.829-13.31,19.035
			c2.247,6.206-7.505,28.783-7.505,28.783s-22.165,12.886-31.03-19.031C259.625,313.712,258.747,300.956,257.413,297.582z"/>
		<path style="fill:#30220F;" d="M177.407,261.301c0,0,31.151-25.005,72.247-14.224c0,0,1.991,0.142,1.991,3.688
			S201.861,268.29,177.407,261.301z"/>
		<path style="fill:#392C18;" d="M221.502,303.96c0,0,33.684-7.35,32.801-8.994s6.209-51.293-6.203-44.201
			c-12.412,7.093-40.618,34.047-40.618,34.047L221.502,303.96z"/>
		<path style="fill:#38D430;" d="M363.726,194.024l10.392,5.319c0,0,76.122-8.866,90.308-106.39c0,0,1.773-23.051-5.319-15.958
			c-7.093,7.093-2.66,11.526-2.66,11.526s10.639,39.01-35.463,78.019C420.983,166.54,402.22,186.044,363.726,194.024z"/>
		<path style="fill:#0B4409;" d="M282.922,223.361c0,0,44.639-19.172,44.804-34.893s4.66-32.372,10.392-32.913
			c5.732-0.541,10.886,29.603,7.423,36.696c-3.464,7.093-13.484,4.815-27.092,19.253L282.922,223.361z"/>
		<path style="fill:#38D430;" d="M303.818,115.386c0,0-33.204-50.818-122.481-10.028c0,0-72.267,31.314-51.958,113.628
			c0,0,33.463,13.037,37.525,16.645c0,0,27.113,1.835,41.298,1.835s40.397,0,40.397,0s2.159-5.318,26.097-11.524
			c23.938-6.206,57.628-27.485,57.628-39.897c0-12.412,3.546-33.69,3.546-33.69s28.371-24.824,49.649-35.463
			c21.278-10.639,47.875-30.144,47.875-30.144s-37.236,3.546-67.38,3.546S307.228,103.242,303.818,115.386z"/>
		<path style="fill:#38D430;" d="M45.958,126.643c0,0-3.546-15.958,1.773-15.958s35.463,17.732,35.463,17.732
			s30.144,10.639,33.69,24.824c3.546,14.185,14.474,56.367-0.742,56.554S35.319,188.704,35.319,94.726
			c0,0,43.443,18.618,59.401,15.072c15.958-3.546,51.422-12.412,60.288,8.866c0,0-17.115,21.815-19.196,32.185
			c0,0-12.638-14.859-29.524-19.089c-16.886-4.23-57.669-25.508-57.669-25.508S32.66,95.613,45.958,126.643z"/>
		<g>
			<path d="M248.677,217.432c0,0-2.35-41.14,18.928-46.459c21.278-5.319,42.432,6.684,34.515,37.919
				C302.119,208.891,263.439,231.974,248.677,217.432z"/>
			
				<ellipse transform="matrix(0.3995 -0.9167 0.9167 0.3995 -13.7447 355.9522)" style="fill:#FFFFFF;" cx="264.82" cy="188.467" rx="11.081" ry="7.315"/>
			<circle style="fill:#FFFFFF;" cx="274.697" cy="195.797" r="3.546"/>
			<path style="fill:#FFFFFF;" d="M258.738,211.755c0,0,17.732,3.546,26.597-1.773c8.866-5.319,3.546,10.639-19.505,8.866
				C265.831,218.848,253.419,217.075,258.738,211.755z"/>
		</g>
		<g>
			<path d="M191.523,222.24c0,0-34.098,11.614-42.842-8.301c-8.745-19.915-1.652-46.224,16.966-40.162
				S193.461,211.447,191.523,222.24z"/>
			<g>
				<ellipse style="fill:#FFFFFF;" cx="156.808" cy="189.953" rx="8.127" ry="11.163"/>
				<circle style="fill:#FFFFFF;" cx="165.647" cy="198.457" r="2.66"/>
				<path style="fill:#FFFFFF;" d="M155.895,215.302c0.309,3.021,13.084,15.434,28.371,1.773c0,0-14.185,3.546-22.112-3.225
					c-1.341-1.146-2.495-2.562-4.243-2.32C156.35,211.747,155.004,212.629,155.895,215.302z"/>
			</g>
		</g>
		<path style="fill:#FFFFFF;" d="M136.39,147.921c0,0,0,14.185,15.958,7.093c15.958-7.093,19.505-31.917,7.093-31.917
			S147.029,131.963,136.39,147.921z"/>
		<g>
			<path d="M217.784,233.194c-7.269,0-12.502-1.912-12.863-2.047c-0.916-0.345-1.379-1.365-1.037-2.281
				c0.342-0.916,1.365-1.385,2.28-1.041c0.134,0.048,13.668,4.944,26.958-1.699c0.879-0.435,1.941-0.081,2.379,0.793
				c0.438,0.876,0.083,1.941-0.793,2.379C228.721,232.292,222.773,233.194,217.784,233.194z"/>
		</g>
		<path d="M203.771,157c0,0,12.205-5.107,25.607,0C229.378,157,217.957,150.12,203.771,157z"/>
		<path d="M198.451,134.403c0,0,21.129-8.826,44.329,0C242.78,134.403,223.009,122.512,198.451,134.403z"/>
		<path style="fill:#FFFFFF;" d="M136.39,218.986c0,0-26.597-65.745,40.783-106.528c0,0,22.165-17.505,65.607-19.835
			c0,0-45.785-6.935-87.17,30.831S131.957,216.465,136.39,218.986z"/>
		<path style="fill:#FFFFFF;" d="M338.118,155.555c0,0,9.113,11.872,7.423,36.696l5.402,1.773
			C350.943,194.024,350.118,159.641,338.118,155.555z"/>
		<path style="fill:#0B4409;" d="M83.195,128.417c0,0,28,13.815,32.618,25.526c4.618,11.711,6.392,43.628,6.392,43.628
			s0.33,10.23-5.155,11.321c-5.484,1.091,9.897,4.637,8.412-9.548c-1.485-14.185-0.678-36.322,3.352-43.872
			C132.844,147.921,115.112,135.509,83.195,128.417z"/>
		<path style="fill:#0B4409;" d="M354.448,192.25c0,0-3.051-33.265-5.938-35.251c-2.887-1.986-0.66-13.065,15.958-22.597
			c16.618-9.532,80.452-44.996,85.772-39.676c5.32,5.319,0,20.907,0,20.907s12.412-28-3.546-24.453
			c-15.958,3.546-67.38,33.69-67.38,33.69s44.329-33.69,54.082-38.123c9.752-4.433,23.938-9.752,25.711-9.752
			s3.464,69.694-40.824,97.794S354.448,192.25,354.448,192.25z"/>
		<g>
			<path d="M274.644,294.664c-0.944-3.777-6.064-22.621-14.132-22.621c-6.01,0-21.746,4.06-24.427,8.397
				c-0.616,0.997-0.691,2.074-0.21,3.035c0.246,0.492,0.519,0.931,0.81,1.322c-1.793,0.371-2.589,1.058-2.749,2.179
				c-0.148,1.038,0.304,1.862,1.706,2.687c-1.344,0.769-1.726,1.842-1.726,2.812c0,1.095-0.001,2.13,0.384,3.055
				c0.318,0.766,1.181,2.052,3.376,2.052c1.007,0,2.244-0.256,3.893-0.806c2.846-0.949,12.369-2.719,20.422-2.719
				c7.527,0,9.143,1.546,9.458,2.02c0.338,0.507,0.898,0.79,1.476,0.79c0.241,0,0.485-0.049,0.717-0.152
				C274.43,296.367,274.853,295.501,274.644,294.664z M261.99,292.285c-7.972,0-17.751,1.732-20.983,2.81
				c-1.489,0.496-2.56,0.715-3.332,0.715c-1.987,0-1.987-1.447-1.986-3.333c0-1.817,3.416-2.095,5.506-2.095
				c0.921,0,1.586,0.054,1.586,0.054c-13.359-3.901-4.353-4.218-1.064-4.218c0.505,0,0.876,0.007,1.009,0.011
				c-0.454-0.018-3.621-0.258-5.265-3.545c-1.773-3.546,15.958-8.866,23.051-8.866c7.093,0,12.412,21.278,12.412,21.278
				C271.532,293.007,267.138,292.285,261.99,292.285z"/>
			<path d="M181.062,274.288c0.282-0.331,0.6-0.68,0.911-0.991c0.464-0.464,0.634-1.145,0.442-1.772
				c-0.308-1.009-1.353-3.85-3.301-4.87c0.156-0.79,0.081-1.624-0.356-2.498c-0.372-0.744-1.504-3.007-3.554-3.007
				c-0.852,0-1.545,0.408-2.023,0.903c-0.911,0.591-1.842,2.519-4.323,8.581c-0.203,0.497-0.362,0.886-0.453,1.099
				c-0.085,0.152-0.153,0.313-0.189,0.463c-0.095,0.388-0.016,0.786,0.143,1.15c-1.241,3.102-6.333,16.589-3.054,21.451
				c0.857,1.271,2.167,1.942,3.788,1.942c0.365,0,0.751-0.035,1.148-0.104c0.97-0.169,0.97-0.169,13.7-18.252
				c0.496-0.705,0.414-1.665-0.196-2.274C183.584,275.946,182.514,274.91,181.062,274.288z M174.191,263.577
				c0.015,0,0.028,0.004,0.04,0.012c0,0,0.356-0.666,0.973-0.666c0.501,0,1.174,0.439,1.968,2.027
				c0.224,0.449,0.271,0.897,0.194,1.34c-0.699,0.07-1.615,0.396-2.519,1.49c-1.473,1.783-3.314,3.092-4.466,3.814
				C171.357,269.213,173.641,263.577,174.191,263.577z M169.938,294.888c-0.302,0.052-0.582,0.078-0.844,0.078
				c-6.815,0-0.544-17.18,0.759-20.567c0.029,0.001,0.054,0.019,0.083,0.019c0.279,0,0.889-0.072,1.358-0.638
				c0.214-0.135,0.611-0.362,0.944-0.551c1.787-1.018,4.8-2.742,6.201-4.941c1.386,0.862,2.281,3.756,2.281,3.756
				s-3.546,3.546-1.773,3.546s3.546,1.773,3.546,1.773S170.185,294.845,169.938,294.888z"/>
		</g>
		<g>
			<path style="fill:#38D430;" d="M242.78,290.434c0,0-7.091-0.577-7.092,2.041s-0.001,4.392,5.319,2.618
				c5.32-1.773,28.371-5.319,31.917,0c0,0-5.319-21.278-12.412-21.278c-7.093,0-24.824,5.319-23.051,8.866s5.32,3.546,5.32,3.546
				S226.821,285.775,242.78,290.434z"/>
			<path style="fill:#38D430;" d="M169.938,294.888c0.247-0.043,12.554-17.525,12.554-17.525s-1.773-1.773-3.546-1.773
				s1.773-3.546,1.773-3.546s-1.915-6.268-4.504-3.134c-2.589,3.134-6.135,4.907-6.135,4.907S160.93,296.455,169.938,294.888z"/>
			<path style="fill:#38D430;" d="M174.231,263.589c-0.605-0.412-4.436,9.608-4.294,9.031s9.008-4.124,7.235-7.67
				C175.4,261.404,174.231,263.589,174.231,263.589z"/>
		</g>
		<path style="fill:#725730;" d="M177.407,261.301c0,0,3.312,1.876,3.312,5.423c0,0,1.773,4.749,1.773,5.921
			c0,1.172,4.836,3.357,3.305,7.584c-1.531,4.227-6.851,7.773-6.851,7.773s0,15.958,10.639,17.732s31.917-1.773,31.917-1.773
			l27.098-46.927l-0.5-6.268C248.099,250.765,245.908,258.538,177.407,261.301z"/>
		<path style="fill:#725730;" d="M290.655,332.743c-1.004,1.518,8.866-11.051,8.866-11.051s-3.546,14.185-12.412,17.732
			c0,0,44.421,16.453,60.333,5.567c15.913-10.886,30.098-28.618,28.325-44.577c-1.773-15.958-23.051-35.463-23.051-35.463
			l8.866,1.773c0,0-33.197-39.01-78.659-7.093c0,0-2.778,6.124,6.467,1.732c9.245-4.392,32.296-11.484,35.843,8.02
			c3.546,19.505-23.855,15.429-23.855,15.429s0.309,11.45-7.423,13.082C293.954,297.895,293.315,328.722,290.655,332.743z"/>
		<path style="fill:#725730;" d="M289.389,344.248c0,0,17.224,14.68,18.998,14.68c1.773,0-3.546,5.319-3.546,5.319
			s27.546-10.103,33.278-4.165c5.732,5.938,26.128,18.474-8.894,29.938c0,0,28.947-3.588,20.013,10.144
			c0,0,31.849-5.773,35.395-18.185c3.546-12.412,1.773-39.01-14.185-47.875h-3.258l-13.587,11.526l7.093,1.773
			C360.695,347.402,319.154,362.371,289.389,344.248z"/>
		<path style="fill:#725730;" d="M235.687,365.526l21.726-14.598c0,0-32.365,0.907-34.138,0.907s10.639,5.691,12.412,6.392
			S235.687,365.526,235.687,365.526z"/>
		<path style="fill:#725730;" d="M251.646,362.474L237.46,376.66C237.46,376.66,264.058,364.247,251.646,362.474z"/>
		<path style="fill:#725730;" d="M375.917,244.538c1.623-0.866,1.623-16.824,5.169-23.917c3.546-7.093-7.093-17.732-7.093-17.732
			s-0.577,3.546-3.835,0c-3.258-3.546-15.546-5.32-20.041,0c-1.733,2.051-4.18,4.452-6.749,6.992
			c-4.084-0.161-9.643-1.2-22.57,3.647c0,0,16.761-1.765,12.813,7.096c-0.001,0.002-0.001,0.003-0.002,0.005
			c-0.383,0.544-0.746,1.083-1.059,1.611c-3.773,6.36-69.903,21.04-56.343,37.638c0,0,17.993-21.525,48.137-16.206
			c30.144,5.32,33.69,5.32,33.69,5.32l-3.546,5.319l15.958,23.051c0,0,12.412-9.711,8.866-17.268
			c-3.546-7.557-12.412-18.196-12.412-18.196S374.295,245.404,375.917,244.538z"/>
		<path style="fill:#725730;" d="M221.502,303.96"/>
		<path style="fill:#A88568;" d="M177.407,297.895c0,0-3.781,22.477-9.1,21.364c-5.319-1.113-13.443-12.811-6.722-34.446
			s10.144-21.889,10.144-21.889s-10.804-5.846-36.37,43.306c0,0-9.608,50.925,15.216,61.564c0,0,16.933,0.969,23.095-35.422
			c0,0-4.477,1.67-5.364,5.691c-0.887,4.021-11.526,4.021-9.752,2.247c1.773-1.773,7.093-1.155,7.093-3.237
			c0-2.082-5.319-5.629-3.546-5.629S182.074,337.045,177.407,297.895z"/>
		<path style="fill:#A88568;" d="M244.594,244.378c0,0-50.68-9.424-83.875,21.533c0,0-20.783,16.111-24.329,34.173
			c0,0-22.061-14.363-17.237-37.16h2.598c0,0-27.505-18.43-1.113-48.985c0,0,12.598,15.04,29.69,16.624s5.522,7.885,5.522,7.885
			s21.648-0.857,21.042,2.627c-0.606,3.484,31.065-4.969,69.311-0.742L244.594,244.378z"/>
	</g>
	<path style="fill:#2B2112;" d="M171.157,301.875c0.014-0.002,0.026-0.005,0.039-0.007c-0.998,4.42-2.255,8.548-3.33,10.916
		c-1.559-1.879-3.36-5.796-3.496-11.907C166.34,301.92,168.687,302.307,171.157,301.875z"/>
	<path style="fill:#2B2112;" d="M273.979,302.109c0.513-0.076,1.01-0.208,1.487-0.393c1.171,4.253,1.172,7.233,0.984,8.937
		c-0.025,0.225-0.054,0.438-0.087,0.642C275.954,307.773,275.156,304.706,273.979,302.109z"/>
</g>
</svg>
